<svg fill="#68abfe" xmlns="http://www.w3.org/2000/svg" viewBox="0 0 512 512"><path d="M508.578 303.317c-.323-17.499-8.915-33.969-23.16-44.217a7.498 7.498 0 00-8.758 12.172c9.781 7.038 15.916 18.087 16.822 30.001-8.999 3.317-16.669 9.709-21.574 17.923-59.218 18.968-114.744 24.934-165.293 17.787l-42.856-9.287c-1.088-.301-2.179-.588-3.264-.897a415.506 415.506 0 01-8.132-2.404l-38.742-13.096a394.693 394.693 0 00-11.604-3.552c-.368-.107-.741-.208-1.11-.314l-42.229-9.735a354.769 354.769 0 00-21.937-3.037c-1.68-.177-3.378-.331-5.074-.485v-3.65c0-21.399-17.415-38.808-38.821-38.808h-47.96v-1.09c0-12.715 1.693-25.385 5.033-37.656l8.456-31.065c.416-1.528 1.593-2.008 2.256-2.159.666-.15 1.935-.225 2.971.977l6.228 7.218a7.498 7.498 0 0011.352-9.797l-6.228-7.218a17.99 17.99 0 00-17.64-5.802 17.994 17.994 0 00-13.406 12.845l-8.456 31.065a158.392 158.392 0 00-5.56 41.595v48.968a18.09 18.09 0 00-6.77 7.168L1.07 349.197l-.003.006-.058.112c-.02.038-.033.08-.053.118-.1.2-.191.404-.273.613-.028.071-.053.143-.079.216-.069.195-.13.393-.183.594-.021.077-.042.153-.06.231a7.662 7.662 0 00-.114.626c-.01.071-.024.141-.032.213-2.766 24.458 21.609 45.37 44.488 45.37h113.089c3.753 0 7.409-1.536 10.03-4.215 2.254-2.304 3.588-5.235 3.828-8.369l11.435 1.991a7.498 7.498 0 002.573-14.772l-12.433-2.165a13.834 13.834 0 00-11.554 2.981 13.808 13.808 0 00-4.938 9.554h-25.71c-3.578-20.991-21.892-37.026-43.894-37.026h-67.12l16.419-31.594a3.07 3.07 0 011.492-1.39 7.43 7.43 0 001.914-.389c22.556-3.363 45.476-4.758 68.15-4.126 9.171.256 18.317.861 27.183 1.797 8.115.858 16.36 2.038 24.447 3.497 13.034 2.454 25.897 5.508 38.233 9.08 19.729 5.711 38.784 13.45 58.544 19.072a458.261 458.261 0 0032.316 7.941l.041.009c53.134 10.455 111.556 6.582 173.884-11.472l-13.243 26.89-54.08 16.029a40.685 40.685 0 01-11.573 1.679H372.23l-82.66-26.558a30.772 30.772 0 00-31.079 7.378l-18.569 18.263-23.062-4.016c-4.076-.714-7.962 2.02-8.673 6.1a7.495 7.495 0 006.1 8.672l26.859 4.677c1.832.319 3.703.48 5.56.48H371.03a.14.14 0 00.05 0h12.656c5.363 0 10.691-.773 15.834-2.297l57.155-16.941.14-.041 25.446-7.542C499.792 365.293 512 348.947 512 330.72v-19.063c-.001-3.137-1.262-6.126-3.422-8.34zM87.13 360.269c13.699.001 25.247 9.369 28.575 22.031H44.702c-13.699 0-25.247-9.368-28.575-22.031H87.13zm29.543-67.152c-23.949-1.197-48.013-.173-71.787 2.931v-29.335h47.962c13.138 0 23.825 10.683 23.825 23.812v2.592zm143.7 89.184l8.633-8.49a15.822 15.822 0 0115.978-3.792l38.226 12.282h-62.837zm236.631-51.58c0 11.634-7.794 22.069-18.954 25.377l-9.089 2.694 14.798-30.051c2.78-5.647 7.524-10.177 13.245-12.733v14.713z"/><path d="M449.176 248.305l-37.706-3.687a411.243 411.243 0 01-44.895-6.929 645.198 645.198 0 01-69.561-42.738l.662-.788a7.498 7.498 0 00-.918-10.564 7.497 7.497 0 00-10.563.917l-1.373 1.634a644.039 644.039 0 01-14.363-10.958l.847-1.008a7.498 7.498 0 00-11.481-9.647l-1.047 1.247a643.335 643.335 0 01-14.5-12.308l.95-1.131a7.498 7.498 0 00-11.481-9.647l-.643.765a642.517 642.517 0 01-24.437-23.617 7.106 7.106 0 00-.492-.459c-7.989-6.8-19.877-6.121-27.06 1.547-4.553 4.857-8.85 11.475-12.775 19.668-8.92 18.619-9.181 35.599-8.619 43.701-16.534 10.792-37.427 13.585-56.602 6.862a7.498 7.498 0 00-9.556 4.594 7.496 7.496 0 004.593 9.557c29.735 10.427 62.85 2.297 84.365-20.711 4.672-4.996 12.292-6.052 18.147-2.534l-7.991 9.511a7.498 7.498 0 00.918 10.564c3.099 2.604 7.971 2.166 10.563-.917l9.471-11.272 14.692 8.944c.582.354 1.17.699 1.752 1.05l-5.098 6.068a7.498 7.498 0 00.918 10.564c3.099 2.604 7.971 2.166 10.563-.917l6.8-8.093a425.675 425.675 0 0016.345 8.6l-3.38 4.023a7.498 7.498 0 00.918 10.564c3.099 2.604 7.971 2.166 10.563-.917l5.891-7.012a434.432 434.432 0 0088.333 29.203c.45.137.905.238 1.362.288a426.151 426.151 0 0046.725 7.222l37.706 3.687a7.5 7.5 0 001.457-14.926zm-238.748-77.851l-1.889-1.15c-10.572-6.435-24.005-5.462-33.55 1.96.745-6.81 2.612-15.286 6.874-24.182 3.263-6.809 6.692-12.156 10.194-15.894 1.645-1.754 4.321-1.97 6.199-.542a657.845 657.845 0 0025.193 24.311l-13.021 15.497zm29.416 17.869a420.966 420.966 0 01-3.724-2.23l-12.732-7.751 11.243-13.382a660.902 660.902 0 0014.502 12.305l-9.289 11.058zm29.692 16.024a413.474 413.474 0 01-16.443-8.483l7.716-9.185a659.673 659.673 0 0014.349 10.974l-5.622 6.694zm14.082 6.551l3.717-4.424a653.126 653.126 0 0021.592 14.652 417.313 417.313 0 01-25.309-10.228z"/></svg>