<svg fill="#fff" xmlns="http://www.w3.org/2000/svg" viewBox="0 0 512 512"><path d="M75.334 436.593c-10.963-10.964-24.721-18.154-39.566-20.818L1.335 490.741a14.997 14.997 0 003.062 16.788 15 15 0 0010.606 4.395c2.095 0 4.189-.439 6.182-1.333l74.57-34.253c-2.646-14.692-9.37-28.701-20.421-39.745zm60.005-60.004c-14.678-14.665-34.207-22.723-54.907-21.946-3.12.077-6.112.703-9.149 1.15l-7.611 7.611a59.444 59.444 0 00-12.247 17.727l-3.296 7.292c18.062 4.578 34.833 13.366 48.417 26.959 13.63 13.619 22.636 30.45 27.164 48.322l7.116-3.215a59.305 59.305 0 0017.711-12.247l7.644-7.644c3.306-22.928-3.766-46.944-20.842-64.009zm323.085-31.849c-21.111-21.126-56.49-25.345-79.432-8.82-14.723 10.606-23.63 26.267-25.08 44.096a59.968 59.968 0 0017.389 47.304c4.673 4.688 10.006 8.512 15.777 11.339 27.146 13.463 47.333 31.409 60.005 53.368a15 15 0 0012.438 7.486c.19.015.366.015.557.015 4.951 0 9.596-2.446 12.394-6.549 13.185-19.353 20.158-42.06 20.158-65.659.001-31.218-12.144-60.547-34.206-82.58zM324.157 102.919l-32.768 32.768c21.727 24.102 51.501 59.895 73.1 96.602l44.519-44.519c-6.106-44.077-40.774-78.746-84.851-84.851zm170.264-85.835c-22.678-22.678-62.173-22.678-84.851 0l-60.527 60.949a129.51 129.51 0 0184.851 84.851l60.527-60.949C505.76 90.596 512 75.537 512 59.509c0-16.027-6.24-31.086-17.579-42.425zM198.245 87.256c-18.53 5.24-36.305 15.407-50.922 30.034-14.851 14.858-25.055 32.683-30.225 51.233a834.22 834.22 0 0019.468 21.819c7.305-18.576 18.302-36.04 33.039-50.77 14.794-14.805 32.072-25.78 50.66-33.068-7.305-6.683-14.655-13.03-22.02-19.248zM61.535 8.427c-7.413 0-13.17 1.963-17.169 5.904C29.1 29.596 46.592 67.26 58.385 88.356c8.573 15.334 21.377 33.749 36.521 53.114 7.254-16.449 17.748-31.933 31.204-45.394 13.188-13.199 28.521-23.504 44.839-30.763C125.903 31.043 84.083 8.427 61.535 8.427zm183.4 121.654c-19.878 4.979-38.898 15.483-54.118 30.702-15.375 15.386-25.772 34.317-30.71 54.089 68.072 67.788 143.62 116.903 180.048 116.903 7.062 0 12.496-1.846 16.158-5.508 25.221-25.279-37.075-121.564-111.378-196.186zm-79.344 131.401l-64.792 64.794a104.818 104.818 0 0155.753 29.097c15.602 15.589 25.056 35.399 28.685 56.165l77.583-77.583c-30.232-17.439-63.67-42.047-97.229-72.473z"/></svg>