<svg fill="#68abfe" xmlns="http://www.w3.org/2000/svg" viewBox="0 0 511.999 511.999"><path d="M353.001 344.115c-3.945-3.865-10.276-3.8-14.142.144l-.284.29c-3.865 3.945-3.8 10.276.145 14.142a9.966 9.966 0 006.998 2.857 9.976 9.976 0 007.144-3.001l.284-.29c3.865-3.945 3.8-10.276-.145-14.142zm107.573-104.839H434v-26.574c0-5.523-4.477-10-10-10s-10 4.477-10 10v26.574h-26.574c-5.523 0-10 4.477-10 10s4.477 10 10 10H414v26.574c0 5.523 4.477 10 10 10s10-4.477 10-10v-26.574h26.574c5.523 0 10-4.477 10-10s-4.477-10-10-10z"/><path d="M456.694 167.577c-9.34-69.03-67.048-120.678-135.545-120.678-34.577 0-66.922 12.889-92.149 36.514-25.228-23.625-57.573-36.514-92.149-36.514C61.391 46.899 0 109.752 0 187.009c0 15.264 4.453 32.373 13.312 51.259H10c-5.523 0-10 4.477-10 10s4.477 10 10 10h13.962c18.677 31.62 48.213 67.577 88.487 107.623 54.58 54.271 109.924 96.73 110.477 97.153 1.792 1.371 3.933 2.056 6.074 2.056s4.281-.685 6.074-2.056c.422-.323 42.75-32.781 89.658-77.007 4.019-3.789 4.205-10.118.416-14.136-3.788-4.018-10.117-4.205-14.136-.416-35.774 33.729-68.801 60.472-82.011 70.92-15.698-12.42-59.4-47.873-102.593-90.838-34.58-34.399-61.052-65.747-78.949-93.299h89.526a10 10 0 009.612-7.242l17.472-60.902 48.384 155.018a10 10 0 0019.091 0l26.795-85.873h44.644c5.523 0 10-4.477 10-10s-4.477-10-10-10h-51.999a10 10 0 00-9.546 7.021l-19.442 62.305-48.786-156.306a9.98 9.98 0 00-9.662-7.02 10.001 10.001 0 00-9.497 7.242l-24.603 85.758H35.624C25.287 218.753 20 201.552 20 187.009c0-66.229 52.419-120.11 116.851-120.11 32.384 0 62.5 13.312 84.799 37.482a10.001 10.001 0 0014.7 0c22.299-24.17 52.415-37.482 84.799-37.482 55.707 0 103.068 40.174 114.325 95.125a88.504 88.504 0 00-11.475-.748c-48.523 0-88 39.477-88 88s39.477 88 88 88 88-39.477 88-88c.001-36.976-22.924-68.694-55.305-81.699zM424 317.276c-37.495 0-68-30.505-68-68s30.505-68 68-68 68 30.505 68 68-30.505 68-68 68z"/></svg>